<svg data-name="Layer 1" xmlns="http://www.w3.org/2000/svg" xmlns:xlink="http://www.w3.org/1999/xlink" width="798.8200073242188" height="755.1500244140625"><rect id="backgroundrect" width="100%" height="100%" x="0" y="0" fill="none" stroke="none"/><defs><linearGradient id="15164562-d11a-4880-a4be-123e1b3db71d" x1="0.5000329613685608" y1="1.0001378059387207" x2="0.5000329613685608" y2="0.00004488103877520189"><stop offset="0" stop-color="gray" stop-opacity="0.25"/><stop offset="0.54" stop-color="gray" stop-opacity="0.12"/><stop offset="1" stop-color="gray" stop-opacity="0.1"/></linearGradient><linearGradient id="4387c4a6-2b07-43b0-875b-db8294e1d525" x1="411.3399963378906" y1="295.0400085449219" x2="411.3399963378906" y2="145.6999969482422" xlink:href="#15164562-d11a-4880-a4be-123e1b3db71d"/><linearGradient id="b3ecf4c1-be91-4dc4-9933-d34be9a535f7" x1="545.52001953125" y1="654.3900146484375" x2="545.52001953125" y2="72.43000030517578" gradientTransform="translate(-198.33 -72.44)" xlink:href="#15164562-d11a-4880-a4be-123e1b3db71d"/><linearGradient id="a2779652-f4e8-430c-84f8-85803e1803c0" x1="725.8800048828125" y1="600.1300048828125" x2="725.8800048828125" y2="322.8599853515625" xlink:href="#15164562-d11a-4880-a4be-123e1b3db71d"/><linearGradient id="21cc8c64-f270-4c0a-a12f-47a949bb1355" x1="637.9400024414062" y1="827.5700073242188" x2="637.9400024414062" y2="758.5700073242188" gradientTransform="translate(-198.33 -72.44)" xlink:href="#15164562-d11a-4880-a4be-123e1b3db71d"/><linearGradient id="1cb52d5d-ff8e-4354-9b08-01122ab0b5ee" x1="0.49996963143348694" y1="0.9999163746833801" x2="0.49996963143348694" y2="-0.0000791572019807063"><stop offset="0" stop-opacity="0.12"/><stop offset="0.55" stop-opacity="0.09"/><stop offset="1" stop-opacity="0.02"/></linearGradient><linearGradient id="081aff01-d630-4567-81f7-f799dc64c22c" x1="544.6500244140625" y1="339.8599853515625" x2="544.6500244140625" y2="212" gradientTransform="" xlink:href="#15164562-d11a-4880-a4be-123e1b3db71d"/><linearGradient id="53983704-70f1-484c-b4a9-0fefea28f4ed" x1="551.3400268554688" y1="291.95001220703125" x2="551.3400268554688" y2="217.1199951171875" gradientTransform="translate(-197.33 -73.75) rotate(0.13)" xlink:href="#1cb52d5d-ff8e-4354-9b08-01122ab0b5ee"/><linearGradient id="07be2ee9-c937-4187-b89e-5aac7e382593" x1="396.04998779296875" y1="399.8599853515625" x2="396.04998779296875" y2="262.8299865722656" xlink:href="#15164562-d11a-4880-a4be-123e1b3db71d"/><linearGradient id="41444764-58a6-4e8b-8ef1-42407163ea5e" x1="386.8699951171875" y1="501.3999938964844" x2="386.8699951171875" y2="378" xlink:href="#15164562-d11a-4880-a4be-123e1b3db71d"/><linearGradient id="d5f06af9-7d77-4f55-b81c-ea1018bd06e7" x1="382.07000732421875" y1="603.6900024414062" x2="382.07000732421875" y2="494.1600036621094" xlink:href="#15164562-d11a-4880-a4be-123e1b3db71d"/><linearGradient id="a0f95284-1d1b-41ad-8ba2-df33ef14eff8" x1="347.17999267578125" y1="384.57000732421875" x2="347.17999267578125" y2="323.57000732421875" xlink:href="#1cb52d5d-ff8e-4354-9b08-01122ab0b5ee"/><linearGradient id="bf099e8a-7ee0-495a-b39d-11459c4d4e21" x1="958.7999877929688" y1="334.1600036621094" x2="958.7999877929688" y2="269.010009765625" gradientTransform="translate(104.71 -563.96) rotate(32.36)" xlink:href="#15164562-d11a-4880-a4be-123e1b3db71d"/></defs><title>mail_2</title><g class="currentLayer" style=""><title>Layer 1</title><path d="M23.660003662109375,448.5699996948242 s-0.6800000071525574,-2 -1.7799999713897705,-5.71999979019165 " fill="none" stroke="#69f0ae" stroke-miterlimit="10" stroke-width="9" id="svg_1"/><path d="M18.660003662109375,431.24999237060547 C-5.649993896484375,337.64998626708984 -81.43999481201172,-93.72999954223633 678.3199768066406,175.56999969482422 " fill="none" stroke="#69f0ae" stroke-miterlimit="10" stroke-width="9" stroke-dasharray="12.04 12.04" id="svg_2"/><path d="M684.0099792480469,177.56999969482422 l5.650000095367432,2 " fill="none" stroke="#69f0ae" stroke-miterlimit="10" stroke-width="9" id="svg_3"/><path d="M794.94,582.69a81.21,81.21,0,0,0-161-15.14l-249.59-6.77,2.74,42.88s-35.59,82.12,151.46,104v83H754.79v-138A81.16,81.16,0,0,0,794.94,582.69Z" transform="translate(-198.34 -72.43)" fill="url(#15164562-d11a-4880-a4be-123e1b3db71d)" id="svg_4"/><path d="M197.32000732421875,533.0300216674805 s-34.08000183105469,78.63999938964844 145.0500030517578,99.62000274658203 v79.5199966430664 H549.4599914550781 V501.5699996948242 L194.66000366210938,491.9600143432617 z" fill="#c9867a" id="svg_5" class="" fill-opacity="1"/><path d="M499.16,277.29h0a38.18,38.18,0,0,1-52.5,11.93L335.47,215.95a38.18,38.18,0,0,1-11.93-52.5h0A38.18,38.18,0,0,1,376,151.52l111.19,73.27A38.18,38.18,0,0,1,499.16,277.29Z" transform="translate(-198.34 -72.43)" fill="url(#4387c4a6-2b07-43b0-875b-db8294e1d525)" id="svg_6"/><path d="M294.6600036621094,200.8499984741211 h0 a35.4900016784668,35.4900016784668 0 0 1 -48.79999923706055,11.09000015258789 L142.47000122070312,143.82999420166016 a35.4900016784668,35.4900016784668 0 0 1 -11.09000015258789,-48.79999923706055 h0 a35.4900016784668,35.4900016784668 0 0 1 48.79999923706055,-11.09000015258789 l103.37000274658203,68.12000274658203 A35.4900016784668,35.4900016784668 0 0 1 294.6600036621094,200.8499984741211 z" fill="#c9867a" id="svg_7" class="" fill-opacity="1"/><circle cx="510.1400146484375" cy="512.9400024414062" r="77.7699966430664" fill="#c9867a" id="svg_8" class="" fill-opacity="1"/><rect x="185.97000122070312" width="322.4200134277344" height="581.9600219726562" rx="12.25" ry="12.25" fill="url(#b3ecf4c1-be91-4dc4-9933-d34be9a535f7)" id="svg_9"/><rect x="190.3300018310547" y="7.869999885559082" width="313.70001220703125" height="566.239990234375" rx="13.640000343322754" ry="13.640000343322754" fill="#fff" id="svg_10"/><path d="M425.9900207519531,22.05999755859375 a25.43000030517578,25.43000030517578 0 0 1 -25.06999969482422,21.6299991607666 H292.58001708984375 a25.43000030517578,25.43000030517578 0 0 1 -25.059999465942383,-21.6299991607666 H210.1199951171875 a11.90999984741211,11.90999984741211 0 0 0 -11.920000076293945,11.90999984741211 v514 a11.90999984741211,11.90999984741211 0 0 0 11.90999984741211,11.920000076293945 H484.2500305175781 a11.90999984741211,11.90999984741211 0 0 0 11.920000076293945,-11.90999984741211 v-514 A11.90999984741211,11.90999984741211 0 0 0 484.2599792480469,22.05999755859375 z" fill="#0079b8" id="svg_11"/><rect x="312.6700134277344" y="28.84000015258789" width="69.91000366210938" height="4.369999885559082" rx="2" ry="2" fill="#dbdbdb" id="svg_12"/><circle cx="397.42999267578125" cy="30.59000015258789" r="2.619999885559082" fill="#dbdbdb" id="svg_13"/><path d="M758.76,599.08h0c-22.57,5.22-38.06-9.5-43.28-32.06L663.62,374.46a42.24,42.24,0,0,1,31.55-50.51h0a42.24,42.24,0,0,1,50.51,31.55L788,553C793.22,575.6,781.32,593.86,758.76,599.08Z" transform="translate(-198.34 -72.43)" fill="url(#a2779652-f4e8-430c-84f8-85803e1803c0)" id="svg_14"/><rect x="499.6889343261719" y="250.76211547851562" width="70.77999877929688" height="282.6099853515625" rx="35.38999938964844" ry="35.38999938964844" transform="rotate(-13.01, 535.079, 392.067)" fill="#c9867a" id="svg_15" class="" fill-opacity="1"/><rect x="291.5899963378906" y="686.1500244140625" width="296" height="69" fill="url(#21cc8c64-f270-4c0a-a12f-47a949bb1355)" id="svg_16"/><rect x="299.5899963378906" y="694.1500244140625" width="280" height="54" fill="#ff8976" id="svg_17"/><path d="M611.56,254.81l-22.94-17.27,10-13-16.69-13.1L571.5,224.66l-23.59-17.75a5.19,5.19,0,0,0-6.23,0l-62.53,46.55c-2.37,2-4.59,4.29-4.61,9.53h-.07l-.16,71.72h0v3.19a7.82,7.82,0,0,0,7.8,7.84h3.08l59.29.13,62.38.14a7.82,7.82,0,0,0,7.84-7.8l.17-74.78H615C615,258.18,613.93,256.81,611.56,254.81Z" transform="translate(-198.34 -72.43)" fill="url(#1cb52d5d-ff8e-4354-9b08-01122ab0b5ee)" id="svg_18"/><path d="M608.84,264.52c0-4.78-1-6-3.14-7.85L547.63,213a4.74,4.74,0,0,0-5.69,0l-57.05,42.48a10.06,10.06,0,0,0-4.2,8.69h-.06l-.15,65.44h0v2.91a7.14,7.14,0,0,0,7.12,7.15h2.81l54.1.12,56.91.13a7.14,7.14,0,0,0,7.15-7.12l.15-68.23Z" transform="translate(-198.34 -72.43)" fill="url(#081aff01-d630-4567-81f7-f799dc64c22c)" id="svg_19"/><path d="M283.9399871826172,190.9099884033203 H409.77000427246094 a0,0 0 0 1 0,0 v69.2300033569336 a4.179999828338623,4.179999828338623 0 0 1 -4.179999828338623,4.179999828338623 h-117 a4.610000133514404,4.610000133514404 0 0 1 -4.610000133514404,-4.610000133514404 V190.9099884033203 a0,0 0 0 1 0,0 z" transform="rotate(0.13, -197.67, -73.64)" fill="#0079b8" id="svg_20"/><path d="M283.9399871826172,190.9099884033203 H409.77000427246094 a0,0 0 0 1 0,0 v69.2300033569336 a4.179999828338623,4.179999828338623 0 0 1 -4.179999828338623,4.179999828338623 h-117 a4.610000133514404,4.610000133514404 0 0 1 -4.610000133514404,-4.610000133514404 V190.9099884033203 a0,0 0 0 1 0,0 z" transform="rotate(0.13, -197.67, -73.64)" fill="#fff" opacity="0.2" id="svg_21"/><path d="M283.3500061035156,191.9800033569336 L283.2099914550781,255.56999969482422 a9.770000457763672,9.770000457763672 0 0 0 9.75,9.789999961853027 l106.29000091552734,0.23999999463558197 " fill="#f5f5f5" id="svg_22"/><path d="M409.1900329589844,192.26000213623047 l-0.14000000059604645,63.630001068115234 a9.770000457763672,9.770000457763672 0 0 1 -9.789999961853027,9.75 l-106.29000091552734,-0.23999999463558197 " fill="#fff" id="svg_23"/><path d="M343.5899963378906,142.2300033569336 l-56,41.29999923706055 a9.75,9.75 0 0 0 -4.130000114440918,8.449999809265137 l125.88999938964844,0.4000000059604645 c0,-4.650000095367432 -1,-5.869999885559082 -3.0799999237060547,-7.630000114440918 l-57.04999923706055,-42.5 A4.690000057220459,4.690000057220459 0 0 0 343.5899963378906,142.2300033569336 z" fill="#0079b8" id="svg_24"/><path d="M343.5899963378906,142.2300033569336 l-56,41.29999923706055 a9.75,9.75 0 0 0 -4.130000114440918,8.449999809265137 l125.88999938964844,0.4000000059604645 c0,-4.650000095367432 -1,-5.869999885559082 -3.0799999237060547,-7.630000114440918 l-57.04999923706055,-42.5 A4.690000057220459,4.690000057220459 0 0 0 343.5899963378906,142.2300033569336 z" opacity="0.2" id="svg_25"/><polygon points="395.56 156.6 380.33 144.66 343.52 191.28 323.74 175.94 311.35 191.69 340.14 213.68 340.14 213.68 347.28 219.41 395.56 156.6" fill="url(#53983704-70f1-484c-b4a9-0fefea28f4ed)" id="svg_26"/><polygon points="394.44 156.31 380.64 145.73 344.07 193.42 323.76 177.85 313.17 191.65 340.38 212.49 340.38 212.49 347.36 217.72 394.44 156.31" fill="#fff" id="svg_27"/><path d="M475.28,382.24h0a37.9,37.9,0,0,1-52.11,11.84l-94.5-61.53a37.9,37.9,0,0,1-11.84-52.11h0a37.9,37.9,0,0,1,52.11-11.84l94.5,61.53A37.9,37.9,0,0,1,475.28,382.24Z" transform="translate(-198.34 -72.43)" fill="url(#07be2ee9-c937-4187-b89e-5aac7e382593)" id="svg_28"/><path d="M271.9200134277344,306.5699996948242 h0 a35.4900016784668,35.4900016784668 0 0 1 -48.79999923706055,11.09000015258789 l-88.51000213623047,-57.630001068115234 a35.4900016784668,35.4900016784668 0 0 1 -11.09000015258789,-48.79999923706055 h0 a35.4900016784668,35.4900016784668 0 0 1 48.79999923706055,-11.09000015258789 l88.51000213623047,57.630001068115234 A35.4900016784668,35.4900016784668 0 0 1 271.9200134277344,306.5699996948242 z" fill="#c9867a" id="svg_29" class="" fill-opacity="1"/><path d="M456,483.86h0a37.72,37.72,0,0,1-51.87,11.79L329.55,447.4a37.72,37.72,0,0,1-11.79-51.87h0a37.72,37.72,0,0,1,51.87-11.79L444.2,432A37.72,37.72,0,0,1,456,483.86Z" transform="translate(-198.34 -72.43)" fill="url(#41444764-58a6-4e8b-8ef1-42407163ea5e)" id="svg_30"/><path d="M437.28,586h0a38.06,38.06,0,0,1-52.34,11.9L338.75,564.2a38.06,38.06,0,0,1-11.9-52.34h0A38.06,38.06,0,0,1,379.19,500l46.19,33.69A38.06,38.06,0,0,1,437.28,586Z" transform="translate(-198.34 -72.43)" fill="url(#d5f06af9-7d77-4f55-b81c-ea1018bd06e7)" id="svg_31"/><path d="M235.20999145507812,511.0599899291992 h0 a35.4900016784668,35.4900016784668 0 0 1 -48.79999923706055,11.09000015258789 l-43.06999969482422,-31.420000076293945 a35.4900016784668,35.4900016784668 0 0 1 -11.09000015258789,-48.79999923706055 h0 a35.4900016784668,35.4900016784668 0 0 1 48.79999923706055,-11.09000015258789 l43.06999969482422,31.420000076293945 A35.4900016784668,35.4900016784668 0 0 1 235.20999145507812,511.0599899291992 z" fill="#c9867a" id="svg_32" class="" fill-opacity="1"/><rect x="245.17999267578125" y="323.57000732421875" width="204" height="61" fill="url(#a0f95284-1d1b-41ad-8ba2-df33ef14eff8)" id="svg_33"/><rect x="252.17999267578125" y="329.57000732421875" width="190" height="44" fill="#69f0ae" id="svg_34"/><polygon points="795.23 214.52 798.82 215.08 798.26 214.55 798.56 214.55 798.09 214.39 733 152.66 717.2 177.59 704.06 200.33 710.15 201.28 707.45 213.6 795.23 214.52" fill="url(#bf099e8a-7ee0-495a-b39d-11459c4d4e21)" id="svg_35"/><polygon points="719.93 178.89 707.93 199.7 795.93 214.03 739.25 174.56 719.93 178.89" fill="#0079b8" id="svg_36"/><polygon points="719.93 178.89 707.93 199.7 795.93 214.03 739.25 174.56 719.93 178.89" opacity="0.2" id="svg_37"/><polygon points="734.38 156.09 795.93 214.03 719.93 178.89 734.38 156.09" fill="#0079b8" id="svg_38"/><polygon points="711.17 211.93 795.69 213.54 716.79 185.52 711.17 211.93" fill="#0079b8" id="svg_39"/><path d="M253.55999755859375,408.8199996948242 h0 a35.4900016784668,35.4900016784668 0 0 1 -48.79999923706055,11.09000015258789 l-70.16000366210938,-45.400001525878906 a35.4900016784668,35.4900016784668 0 0 1 -11.09000015258789,-48.79999923706055 h0 A35.4900016784668,35.4900016784668 0 0 1 172.30999755859375,314.5699996948242 l70.16000366210938,45.400001525878906 A35.4900016784668,35.4900016784668 0 0 1 253.55999755859375,408.8199996948242 z" fill="#c9867a" id="svg_40" class="" fill-opacity="1"/></g></svg>